<svg xmlns="http://www.w3.org/2000/svg" width="460" height="148" viewBox="0 0 460 148" role="img" aria-label="">
<circle cx="140" cy="74" r="74" fill="#eaf1f6" stroke="#5a90b0" stroke-width="1.1" vector-effect="non-scaling-stroke"/>
<circle cx="320" cy="74" r="74" fill="#f3effa" stroke="#a794c4" stroke-width="1.1" vector-effect="non-scaling-stroke"/>
<g fill="#ffffff" stroke="#b9bfc4" stroke-width="1.1" vector-effect="non-scaling-stroke">
<circle cx="106" cy="61" r="6"/><rect x="99" y="71" width="14" height="22" rx="7"/>
<circle cx="174" cy="61" r="6"/><rect x="167" y="71" width="14" height="22" rx="7"/>
<circle cx="286" cy="61" r="6"/><rect x="279" y="71" width="14" height="22" rx="7"/>
<circle cx="354" cy="61" r="6"/><rect x="347" y="71" width="14" height="22" rx="7"/>
</g>
<g fill="#5a90b0"><circle cx="140" cy="61" r="6"/><rect x="133" y="71" width="14" height="22" rx="7"/></g>
<ellipse cx="140" cy="74" rx="13" ry="23" fill="none" stroke="#5a90b0" stroke-width="1.2" opacity="0.5" vector-effect="non-scaling-stroke"/>
<g fill="#8e78b3"><circle cx="320" cy="61" r="6"/><rect x="313" y="71" width="14" height="22" rx="7"/></g>
<ellipse cx="320" cy="74" rx="13" ry="23" fill="none" stroke="#8e78b3" stroke-width="1.2" opacity="0.5" vector-effect="non-scaling-stroke"/>
<g stroke="#b5b5b5" stroke-width="1.1" stroke-dasharray="3 4" stroke-linecap="round" vector-effect="non-scaling-stroke">
<line x1="214" y1="74" x2="226" y2="74"/>
<line x1="234" y1="74" x2="246" y2="74"/>
</g>
<line x1="230" y1="58" x2="230" y2="90" stroke="#a0a0a0" stroke-width="1.6" stroke-linecap="round" vector-effect="non-scaling-stroke"/>
</svg>
